<svg width="0" height="0" class="hidden">
  <symbol role="img" xmlns="http://www.w3.org/2000/svg" viewBox="0 0 24 24" id="codepen">
    <title>CodePen</title>
    <path d="M18.144 13.067v-2.134L16.55 12zm1.276 1.194a.628.628 0 01-.006.083l-.005.028-.011.053-.01.031c-.005.016-.01.031-.017.047l-.014.03a.78.78 0 01-.021.043l-.019.03a.57.57 0 01-.08.1l-.026.025a.602.602 0 01-.036.03l-.029.022-.01.008-6.782 4.522a.637.637 0 01-.708 0L4.864 14.79l-.01-.008a.599.599 0 01-.065-.052l-.026-.025-.032-.034-.021-.028a.588.588 0 01-.067-.11l-.014-.031a.644.644 0 01-.017-.047l-.01-.03c-.004-.018-.008-.036-.01-.054l-.006-.028a.628.628 0 01-.006-.083V9.739c0-.028.002-.055.006-.083l.005-.027.011-.054.01-.03a.574.574 0 01.12-.217l.031-.034.026-.025a.62.62 0 01.065-.052l.01-.008 6.782-4.521a.638.638 0 01.708 0l6.782 4.521.01.008.03.022.035.03c.01.008.017.016.026.025a.545.545 0 01.08.1l.019.03a.633.633 0 01.021.043l.014.03c.007.016.012.032.017.047l.01.031c.004.018.008.036.01.054l.006.027a.619.619 0 01.006.083zM12 0C5.373 0 0 5.372 0 12 0 18.627 5.373 24 12 24c6.628 0 12-5.372 12-12 0-6.627-5.372-12-12-12m0 10.492L9.745 12 12 13.51 14.255 12zm.638 4.124v2.975l4.996-3.33-2.232-1.493zm-6.272-.356l4.996 3.33v-2.974l-2.764-1.849zm11.268-4.52l-4.996-3.33v2.974l2.764 1.85zm-6.272-.356V6.41L6.366 9.74l2.232 1.493zm-5.506 1.549v2.134L7.45 12Z"></path>
  </symbol>
  <symbol role="img" xmlns="http://www.w3.org/2000/svg" viewBox="0 0 24 24" id="html5">
    <title>HTML5</title>
    <path d="M1.5 0h21l-1.91 21.563L11.977 24l-8.564-2.438L1.5 0zm7.031 9.75l-.232-2.718 10.059.003.23-2.622L5.412 4.41l.698 8.01h9.126l-.326 3.426-2.91.804-2.955-.81-.188-2.11H6.248l.33 4.171L12 19.351l5.379-1.443.744-8.157H8.531z"></path>
  </symbol>
  <symbol role="img" xmlns="http://www.w3.org/2000/svg" viewBox="0 0 24 24" id="javascript">
    <title>JavaScript</title>
    <path d="M0 0h24v24H0V0zm22.034 18.276c-.175-1.095-.888-2.015-3.003-2.873-.736-.345-1.554-.585-1.797-1.14-.091-.33-.105-.51-.046-.705.15-.646.915-.84 1.515-.66.39.12.75.42.976.9 1.034-.676 1.034-.676 1.755-1.125-.27-.42-.404-.601-.586-.78-.63-.705-1.469-1.065-2.834-1.034l-.705.089c-.676.165-1.32.525-1.71 1.005-1.14 1.291-.811 3.541.569 4.471 1.365 1.02 3.361 1.244 3.616 2.205.24 1.17-.87 1.545-1.966 1.41-.811-.18-1.26-.586-1.755-1.336l-1.83 1.051c.21.48.45.689.81 1.109 1.74 1.756 6.09 1.666 6.871-1.004.029-.09.24-.705.074-1.65l.046.067zm-8.983-7.245h-2.248c0 1.938-.009 3.864-.009 5.805 0 1.232.063 2.363-.138 2.711-.33.689-1.18.601-1.566.48-.396-.196-.597-.466-.83-.855-.063-.105-.11-.196-.127-.196l-1.825 1.125c.305.63.75 1.172 1.324 1.517.855.51 2.004.675 3.207.405.783-.226 1.458-.691 1.811-1.411.51-.93.402-2.07.397-3.346.012-2.054 0-4.109 0-6.179l.004-.056z"></path>
  </symbol>
  <symbol role="img" xmlns="http://www.w3.org/2000/svg" viewBox="0 0 24 24" id="git">
    <title>Git</title>
    <path d="M23.546 10.93L13.067.452c-.604-.603-1.582-.603-2.188 0L8.708 2.627l2.76 2.76c.645-.215 1.379-.07 1.889.441.516.515.658 1.258.438 1.9l2.658 2.66c.645-.223 1.387-.078 1.9.435.721.72.721 1.884 0 2.604-.719.719-1.881.719-2.6 0-.539-.541-.674-1.337-.404-1.996L12.86 8.955v6.525c.176.086.342.203.488.348.713.721.713 1.883 0 2.6-.719.721-1.889.721-2.609 0-.719-.719-.719-1.879 0-2.598.182-.18.387-.316.605-.406V8.835c-.217-.091-.424-.222-.6-.401-.545-.545-.676-1.342-.396-2.009L7.636 3.7.45 10.881c-.6.605-.6 1.584 0 2.189l10.48 10.477c.604.604 1.582.604 2.186 0l10.43-10.43c.605-.603.605-1.582 0-2.187"></path>
  </symbol>
  <symbol role="img" xmlns="http://www.w3.org/2000/svg" viewBox="0 0 24 24" id="gmail">
    <title>Gmail</title>
    <path d="M24 5.457v13.909c0 .904-.732 1.636-1.636 1.636h-3.819V11.73L12 16.64l-6.545-4.91v9.273H1.636A1.636 1.636 0 0 1 0 19.366V5.457c0-2.023 2.309-3.178 3.927-1.964L5.455 4.64 12 9.548l6.545-4.91 1.528-1.145C21.69 2.28 24 3.434 24 5.457z"></path>
  </symbol>
  <symbol role="img" xmlns="http://www.w3.org/2000/svg" viewBox="0 0 24 24" id="css3">
    <title>CSS3</title>
    <path d="M1.5 0h21l-1.91 21.563L11.977 24l-8.565-2.438L1.5 0zm17.09 4.413L5.41 4.41l.213 2.622 10.125.002-.255 2.716h-6.64l.24 2.573h6.182l-.366 3.523-2.91.804-2.956-.81-.188-2.11h-2.61l.29 3.855L12 19.288l5.373-1.53L18.59 4.414z"></path>
  </symbol>
</svg>